HIERARCHY
ROOT Hips
{
	OFFSET 0.000000 0.000000 0.000000
	CHANNELS 6 Xposition Yposition Zposition Zrotation Yrotation Xrotation 
	JOINT LHipJoint
	{
		OFFSET 0.000000 0.000000 0.000000
		CHANNELS 3 Zrotation Yrotation Xrotation
		JOINT LeftUpLeg
		{
			OFFSET 1.363060 -1.794630 0.839290
			CHANNELS 3 Zrotation Yrotation Xrotation
			JOINT LeftLeg
			{
				OFFSET 2.448110 -6.726130 0.000000
				CHANNELS 3 Zrotation Yrotation Xrotation
				JOINT LeftFoot
				{
					OFFSET 2.562200 -7.039590 0.000000
					CHANNELS 3 Zrotation Yrotation Xrotation
					JOINT LeftToeBase
					{
						OFFSET 0.157640 -0.433110 2.322550
						CHANNELS 3 Zrotation Yrotation Xrotation
						End Site
						{
							OFFSET 0.000000 0.000000 0.000000
						}
					}
				}
			}
		}
	}
	JOINT RHipJoint
	{
		OFFSET 0.000000 0.000000 0.000000
		CHANNELS 3 Zrotation Yrotation Xrotation
		JOINT RightUpLeg
		{
			OFFSET -1.305520 -1.794630 0.839290
			CHANNELS 3 Zrotation Yrotation Xrotation
			JOINT RightLeg
			{
				OFFSET -2.542530 -6.985550 0.000000
				CHANNELS 3 Zrotation Yrotation Xrotation
				JOINT RightFoot
				{
					OFFSET -2.568260 -7.056230 0.000000
					CHANNELS 3 Zrotation Yrotation Xrotation
					JOINT RightToeBase
					{
						OFFSET -0.164730 -0.452590 2.363150
						CHANNELS 3 Zrotation Yrotation Xrotation
						End Site
						{
							OFFSET 0.000000 0.000000 0.000000
						}
					}
				}
			}
		}
	}
	JOINT LowerBack
	{
		OFFSET 0.000000 0.000000 0.000000
		CHANNELS 3 Zrotation Yrotation Xrotation
		JOINT Spine
		{
			OFFSET 0.028270 2.035590 -0.193380
			CHANNELS 3 Zrotation Yrotation Xrotation
			JOINT Spine1
			{
				OFFSET 0.056720 2.048850 -0.042750
				CHANNELS 3 Zrotation Yrotation Xrotation
				JOINT Neck
				{
					OFFSET 0.000000 0.000000 0.000000
					CHANNELS 3 Zrotation Yrotation Xrotation
					JOINT Neck1
					{
						OFFSET -0.054170 1.746240 0.172020
						CHANNELS 3 Zrotation Yrotation Xrotation
						JOINT Head
						{
							OFFSET 0.104070 1.761360 -0.123970
							CHANNELS 3 Zrotation Yrotation Xrotation
							End Site
							{
								OFFSET 0.000000 0.000000 0.000000
							}
						}
					}
				}
				JOINT LeftShoulder
				{
					OFFSET 0.000000 0.000000 0.000000
					CHANNELS 3 Zrotation Yrotation Xrotation
					JOINT LeftArm
					{
						OFFSET 3.362410 1.200890 -0.311210
						CHANNELS 3 Zrotation Yrotation Xrotation
						JOINT LeftForeArm
						{
							OFFSET 4.983000 -0.000000 -0.000000
							CHANNELS 3 Zrotation Yrotation Xrotation
							JOINT LeftHand
							{
								OFFSET 3.483560 -0.000000 -0.000000
								CHANNELS 3 Zrotation Yrotation Xrotation
								JOINT LeftFingerBase
								{
									OFFSET 0.000000 0.000000 0.000000
									CHANNELS 3 Zrotation Yrotation Xrotation
									JOINT LeftHandIndex1
									{
										OFFSET 0.715260 -0.000000 -0.000000
										CHANNELS 3 Zrotation Yrotation Xrotation
										End Site
										{
											OFFSET 0.000000 0.000000 0.000000
										}
									}
								}
								JOINT LThumb
								{
									OFFSET 0.000000 0.000000 0.000000
									CHANNELS 3 Zrotation Yrotation Xrotation
									End Site
									{
										OFFSET 0.000000 0.000000 0.000000
									}
								}
							}
						}
					}
				}
				JOINT RightShoulder
				{
					OFFSET 0.000000 0.000000 0.000000
					CHANNELS 3 Zrotation Yrotation Xrotation
					JOINT RightArm
					{
						OFFSET -3.136600 1.374050 -0.404650
						CHANNELS 3 Zrotation Yrotation Xrotation
						JOINT RightForeArm
						{
							OFFSET -5.241900 -0.000000 -0.000000
							CHANNELS 3 Zrotation Yrotation Xrotation
							JOINT RightHand
							{
								OFFSET -3.444170 -0.000000 -0.000000
								CHANNELS 3 Zrotation Yrotation Xrotation
								JOINT RightFingerBase
								{
									OFFSET 0.000000 0.000000 0.000000
									CHANNELS 3 Zrotation Yrotation Xrotation
									JOINT RightHandIndex1
									{
										OFFSET -0.622530 -0.000000 -0.000000
										CHANNELS 3 Zrotation Yrotation Xrotation
										End Site
										{
											OFFSET 0.000000 0.000000 0.000000
										}
									}
								}
								JOINT RThumb
								{
									OFFSET 0.000000 0.000000 0.000000
									CHANNELS 3 Zrotation Yrotation Xrotation
									End Site
									{
										OFFSET 0.000000 0.000000 0.000000
									}
								}
							}
						}
					}
				}
			}
		}
	}
}
MOTION
Frames: 8
Frame Time: 0.008333
5.142634 18.149349 -20.406011 -0.067641 62.627284 -1.328135 1.473232 3.063710 3.048283 -20.884601 -4.839691 -8.152606 6.349088 12.322457 41.132234 8.264015 -6.671953 -56.141275 0.856300 -5.901200 -16.498000 -6.269800 -4.090917 3.963072 26.109947 9.985866 -22.534596 -8.591885 -13.549081 48.729480 -4.923386 4.153092 -44.025019 -1.625600 8.038300 -22.830500 -0.089882 -2.304831 1.974935 -10.426953 -2.670056 23.936746 4.289614 -1.368006 -11.249110 -6.177183 -14.468383 -21.018537 13.014755 -20.216496 39.387789 0.475700 -5.592400 17.557500 3.779474 -6.482513 -0.647944 -93.859422 -6.190268 43.955088 33.828024 -36.342672 -11.998356 0.503855 -0.065416 -35.825904 34.539943 21.109820 14.052000 -7.125000 0.000000 0.000000 5.918900 55.496100 1.528700 1.368589 11.176493 0.665890 82.108713 -1.864708 50.211411 -30.065581 31.077871 -9.328078 -0.428214 -0.001186 -0.096359 -9.961713 2.290002 -0.384900 7.125000 0.000000 0.000000 13.047900 -27.574600 5.662600 
5.145708 18.147765 -20.164722 0.097288 61.908593 -1.155387 1.446490 3.042316 3.012085 -20.946255 -4.438218 -8.281215 6.400525 12.380589 41.343479 8.322312 -6.313490 -56.329032 0.899500 -6.044500 -16.913700 -6.279850 -4.086865 4.023465 26.009123 10.551142 -22.764786 -8.492882 -13.613603 49.166303 -4.385859 10.511905 -42.622668 -0.404200 4.081700 -11.306600 -0.315575 -2.179905 1.845322 -10.367939 -2.551369 23.970967 4.401719 -1.283845 -11.213979 -6.329041 -14.437966 -21.077382 13.222984 -20.167852 39.197011 0.576500 -5.576700 17.519800 3.767721 -6.473956 -0.640910 -93.794998 -5.905101 43.754307 33.785841 -36.294127 -11.957442 0.502157 -0.059814 -35.715387 34.599855 21.102125 14.072600 -7.125000 0.000000 0.000000 5.985000 55.493000 1.545500 1.378681 11.193636 0.641721 82.413577 -1.639489 49.707399 -29.630532 30.637954 -9.031927 -0.425016 0.009373 -0.056616 -9.374322 1.986036 -0.311400 7.125000 0.000000 0.000000 13.526400 -27.882100 5.780000 
5.152789 18.146647 -19.938618 0.341037 61.388450 -0.818088 1.414696 3.049450 3.008253 -21.110065 -4.367496 -8.528055 6.449412 12.456588 41.632482 8.342485 -6.477502 -56.424362 0.823100 -5.788500 -16.171900 -6.267612 -4.092964 4.070231 25.780136 10.772733 -23.268070 -8.529980 -13.711870 49.642011 -3.854338 12.874871 -40.874283 -0.173800 2.685600 -7.404500 -0.089871 -2.149101 1.727433 -10.882754 -2.439757 23.849379 4.416114 -1.259997 -11.122219 -6.156692 -14.405597 -21.123920 13.394190 -20.209446 38.981543 0.599700 -5.566600 17.451600 3.828930 -6.483730 -0.608383 -93.541763 -5.644489 43.671192 33.776953 -36.272107 -11.937049 0.500361 -0.044520 -35.746668 34.448845 21.066511 13.962000 -7.125000 0.000000 0.000000 5.813500 55.398400 1.487600 1.448907 11.210114 0.609583 82.992693 -1.401515 48.854666 -29.155465 30.154828 -8.713284 -0.404123 0.015115 0.110758 -9.366214 1.129726 -0.176000 7.125000 0.000000 0.000000 13.624400 -28.730500 5.541900 
5.154465 18.144784 -19.714750 0.489306 60.927311 -0.745249 1.386144 3.056540 3.012271 -21.206548 -4.280878 -8.605463 6.505541 12.533508 41.919398 8.349826 -6.426660 -56.459892 0.812000 -5.750400 -16.062000 -6.250049 -4.098270 4.099639 25.634605 10.813895 -23.613014 -8.634656 -13.811045 50.083882 -3.773667 12.661386 -40.483488 -0.197100 2.858800 -7.886000 0.028896 -2.201071 1.844381 -11.187344 -2.447631 23.847405 4.443404 -1.282163 -11.166852 -6.021513 -14.308297 -21.207226 13.526811 -20.133807 38.762021 0.637700 -5.522200 17.377000 3.873159 -6.487302 -0.586319 -93.365229 -5.417533 43.403124 33.741367 -36.236688 -11.893808 0.498357 -0.032477 -35.741900 34.436156 21.034282 13.926600 -7.125000 0.000000 0.000000 5.798500 55.343700 1.476000 1.490343 11.210042 0.577147 83.454568 -1.136471 48.132481 -28.732505 29.726221 -8.437594 -0.396189 0.021260 -0.108908 -9.186126 0.840951 -0.126600 7.125000 0.000000 0.000000 13.794400 -29.020200 5.516900 
5.158099 18.146741 -19.485757 0.526271 60.439048 -0.750365 1.360977 3.054457 3.011219 -21.208761 -4.085274 -8.728446 6.575486 12.608322 42.197702 8.347053 -5.969910 -56.436192 0.852900 -5.889800 -16.465200 -6.227261 -4.115478 4.143790 25.571476 10.888266 -23.962884 -8.743034 -13.913969 50.524201 -3.708804 12.289716 -40.115496 -0.218500 3.009500 -8.305100 -0.032701 -2.222051 1.792076 -11.152091 -2.481486 23.991149 4.477632 -1.303081 -11.142879 -6.026074 -14.207122 -21.287048 13.667926 -19.998136 38.491742 0.706500 -5.470600 17.291700 3.881349 -6.494145 -0.578627 -93.273518 -5.243748 43.136927 33.715185 -36.206045 -11.858863 0.499326 -0.027657 -35.728173 34.172767 20.903508 13.712000 -7.125000 0.000000 0.000000 5.517300 55.127600 1.375100 1.497589 11.223051 0.537087 83.900179 -0.817209 47.155213 -28.283385 29.260960 -8.138910 -0.362251 0.011626 -0.233048 -9.846625 -0.112813 0.021200 7.125000 0.000000 0.000000 13.387600 -29.962400 5.036400 
5.157726 18.149442 -19.259933 0.258549 59.862616 -0.947396 1.335460 3.076114 2.988931 -21.014535 -3.879959 -8.953081 6.624558 12.693969 42.446578 8.313226 -5.655157 -56.340367 0.869900 -5.946700 -16.629800 -6.215900 -4.083683 4.133371 25.715451 11.005234 -24.326643 -8.843348 -14.004017 50.919552 -3.624012 11.939100 -39.638552 -0.215300 2.987400 -8.243700 0.511145 -2.252514 2.280085 -11.693492 -2.406553 23.463001 4.399663 -1.263757 -11.498928 -5.951292 -14.161439 -21.167580 13.875712 -20.041839 38.497735 0.762000 -5.463900 17.228700 3.915076 -6.468761 -0.521891 -92.962922 -4.659871 43.127428 33.728398 -36.214727 -11.866038 0.505243 -0.013688 -35.760983 33.790434 20.752299 13.422300 -7.125000 0.000000 0.000000 5.099800 54.856600 1.237000 1.635207 11.172255 0.517428 84.563315 -1.048809 46.047869 -27.997781 28.978977 -7.964218 -0.338249 0.005736 -0.621063 -10.603013 -0.633469 0.116700 7.125000 0.000000 0.000000 12.853000 -30.489200 4.659500 
5.159403 18.154100 -19.029916 0.229039 59.336345 -1.053370 1.305940 3.071617 2.990684 -20.903136 -3.490762 -9.047348 6.650086 12.738164 42.616283 8.254553 -5.815606 -56.141478 0.805500 -5.727800 -15.996600 -6.202165 -4.105014 4.179650 25.766500 11.010415 -24.619392 -8.946994 -14.090210 51.298599 -3.604593 11.326565 -39.399900 -0.254700 3.246900 -8.966800 0.471998 -2.188879 2.138141 -11.666969 -2.318382 23.782171 4.392389 -1.242603 -11.391370 -5.879143 -14.122371 -21.240919 14.051680 -20.016990 38.100852 0.810200 -5.448600 17.117700 3.946241 -6.480462 -0.525966 -92.780820 -4.649798 43.079871 33.667714 -36.151582 -11.810106 0.502485 -0.004868 -35.773935 33.425440 20.687005 13.197100 -7.125000 0.000000 0.000000 4.704900 54.686800 1.121400 1.607049 11.197938 0.462505 85.119434 -0.672807 44.666338 -27.610655 28.577303 -7.710059 -0.309853 -0.011527 -0.914143 -11.553761 -1.119539 0.221600 7.125000 0.000000 0.000000 12.152100 -30.977600 4.249000 
5.164434 18.161087 -18.798874 0.302704 58.885101 -1.097996 1.284755 3.064310 2.980766 -20.856706 -3.100539 -9.027513 6.667405 12.764335 42.698250 8.199038 -5.680703 -55.936531 0.809600 -5.742200 -16.038300 -6.184869 -4.117090 4.204359 25.774561 10.942507 -24.831931 -9.037448 -14.165110 51.631075 -3.560537 10.846580 -39.085625 -0.264800 3.310400 -9.144200 0.343821 -2.205718 2.216947 -11.579802 -2.353950 23.909096 4.463191 -1.248595 -11.454005 -5.926464 -14.053992 -21.291998 14.156552 -19.915650 37.879180 0.866800 -5.420300 17.043600 3.941550 -6.482949 -0.521627 -92.734238 -4.511751 42.876639 33.556349 -36.044879 -11.720092 0.502830 -0.004730 -35.714156 33.023128 20.547403 12.920300 -7.125000 0.000000 0.000000 4.283800 54.436600 0.994700 1.616694 11.202029 0.423679 85.600257 -0.461467 43.276369 -27.225333 28.154650 -7.446096 -0.347957 0.022451 -1.089419 -9.853702 -0.372963 0.067600 7.125000 0.000000 0.000000 13.408700 -30.235700 4.954600 
